<?xml version="1.0" encoding="UTF-8"?>
<svg width="274px" height="274px" viewBox="0 0 274 274" version="1.1" xmlns="http://www.w3.org/2000/svg" xmlns:xlink="http://www.w3.org/1999/xlink">
    <!-- Generator: Sketch 43.2 (39069) - http://www.bohemiancoding.com/sketch -->
    <title>cafe-manna-logo</title>
    <desc>Created with Sketch.</desc>
    <defs></defs>
    <g id="Page-1" stroke="none" stroke-width="1" fill="none" fill-rule="evenodd">
        <g id="cafe-manna-logo" transform="translate(1.000000, 2.000000)">
            <path d="M270.918,135.0811 C270.918,209.6441 210.473,270.0901 135.909,270.0901 C61.347,270.0901 0.9,209.6441 0.9,135.0811 C0.9,60.5181 61.347,0.0721 135.909,0.0721 C210.473,0.0721 270.918,60.5181 270.918,135.0811" id="Fill-1" stroke="#FF3F31" stroke-width="3" fill="#1A1715"></path>
            <path d="M80.3086,148.9326 L80.3086,167.7246 L69.3186,167.7246 L69.3186,150.6966 C69.3186,146.0156 67.0116,143.9126 63.4156,143.9126 C61.7196,143.9126 60.0236,144.5906 58.3956,146.5576 C58.4626,147.3046 58.5316,148.1186 58.5316,148.9326 L58.5316,167.7246 L47.5406,167.7246 L47.5406,150.6966 C47.5406,146.0156 45.2346,143.9126 41.6386,143.9126 C40.0106,143.9126 38.3146,144.6586 36.7536,146.6256 L36.7536,167.7246 L25.6966,167.7246 L25.6966,134.8216 L36.7536,134.8216 L36.7536,136.7216 C38.9256,134.8896 41.2316,133.9396 44.8276,133.9396 C48.9646,133.9396 52.4926,135.5006 54.9356,138.2826 C58.4626,135.2286 61.7876,133.9396 66.6716,133.9396 C74.5416,133.9396 80.3086,139.5716 80.3086,148.9326" id="Fill-3" fill="#FFFFFF"></path>
            <path d="M110.9092,156.3276 L110.9092,146.1516 C108.8052,143.8446 106.4992,143.2336 104.1252,143.2336 C99.6472,143.2336 96.3222,146.6946 96.3222,151.2386 C96.3222,155.7846 99.6472,159.2446 104.1252,159.2446 C106.4992,159.2446 108.8052,158.6346 110.9092,156.3276 L110.9092,156.3276 Z M121.8982,134.8216 L121.8982,167.7236 L110.9092,167.7236 L110.9092,165.9606 C108.4672,167.5886 105.5502,168.6066 101.8862,168.6066 C92.9982,168.6066 85.5372,161.0086 85.5372,151.2386 C85.5372,141.4026 92.9982,133.9396 101.8862,133.9396 C105.5502,133.9396 108.4672,134.8896 110.9092,136.5176 L110.9092,134.8216 L121.8982,134.8216 Z" id="Fill-5" fill="#FF3F31"></path>
            <path d="M163.4209,148.9326 L163.4209,167.7246 L152.4309,167.7246 L152.4309,150.6966 C152.4309,146.0156 150.0559,143.9126 146.3929,143.9126 C144.4249,143.9126 142.3219,144.9306 140.4229,147.0336 L140.4229,167.7246 L129.3639,167.7246 L129.3639,134.8216 L140.4229,134.8216 L140.4229,136.9926 C143.0679,135.0256 145.9169,133.9396 149.4449,133.9396 C157.7219,133.9396 163.4209,139.5716 163.4209,148.9326" id="Fill-7" fill="#FFFFFF"></path>
            <path d="M204.5342,148.9326 L204.5342,167.7246 L193.5442,167.7246 L193.5442,150.6966 C193.5442,146.0156 191.1692,143.9126 187.5062,143.9126 C185.5392,143.9126 183.4352,144.9306 181.5362,147.0336 L181.5362,167.7246 L170.4772,167.7246 L170.4772,134.8216 L181.5362,134.8216 L181.5362,136.9926 C184.1812,135.0256 187.0312,133.9396 190.5582,133.9396 C198.8352,133.9396 204.5342,139.5716 204.5342,148.9326" id="Fill-9" fill="#FFFFFF"></path>
            <path d="M235.1338,156.3276 L235.1338,146.1516 C233.0298,143.8446 230.7238,143.2336 228.3498,143.2336 C223.8718,143.2336 220.5478,146.6946 220.5478,151.2386 C220.5478,155.7846 223.8718,159.2446 228.3498,159.2446 C230.7238,159.2446 233.0298,158.6346 235.1338,156.3276 L235.1338,156.3276 Z M246.1228,134.8216 L246.1228,167.7236 L235.1338,167.7236 L235.1338,165.9606 C232.6908,167.5886 229.7748,168.6066 226.1108,168.6066 C217.2228,168.6066 209.7608,161.0086 209.7608,151.2386 C209.7608,141.4026 217.2228,133.9396 226.1108,133.9396 C229.7748,133.9396 232.6908,134.8896 235.1338,136.5176 L235.1338,134.8216 L246.1228,134.8216 Z" id="Fill-11" fill="#FF3F31"></path>
            <path d="M120.1328,114.3345 C119.4258,115.2905 118.6088,115.9755 117.6808,116.3915 C116.7518,116.8075 115.7478,117.0155 114.6678,117.0155 C113.5448,117.0155 112.5178,116.8245 111.5818,116.4435 C110.6468,116.0635 109.8478,115.5295 109.1828,114.8435 C108.5178,114.1585 107.9978,113.3405 107.6238,112.3925 C107.2498,111.4425 107.0628,110.4075 107.0628,109.2855 C107.0628,108.1635 107.2498,107.1315 107.6238,106.1895 C107.9978,105.2475 108.5178,104.4345 109.1828,103.7485 C109.8478,103.0625 110.6468,102.5255 111.5818,102.1385 C112.5178,101.7505 113.5448,101.5565 114.6678,101.5565 C115.6648,101.5565 116.5968,101.7325 117.4628,102.0855 C118.3278,102.4395 119.0858,103.0315 119.7378,103.8625 L118.6148,104.7975 C118.1578,104.1055 117.5728,103.5995 116.8598,103.2805 C116.1468,102.9615 115.4158,102.8025 114.6678,102.8025 C113.7118,102.8025 112.8498,102.9695 112.0808,103.3015 C111.3128,103.6335 110.6578,104.0905 110.1168,104.6725 C109.5768,105.2545 109.1618,105.9405 108.8708,106.7295 C108.5798,107.5195 108.4348,108.3715 108.4348,109.2855 C108.4348,110.1995 108.5798,111.0515 108.8708,111.8415 C109.1618,112.6305 109.5768,113.3165 110.1168,113.8975 C110.6578,114.4805 111.3128,114.9375 112.0808,115.2695 C112.8498,115.6025 113.7118,115.7685 114.6678,115.7685 C115.0418,115.7685 115.4298,115.7235 115.8308,115.6335 C116.2328,115.5435 116.6238,115.4045 117.0058,115.2175 C117.3868,115.0305 117.7498,114.7955 118.0958,114.5115 C118.4428,114.2275 118.7468,113.8845 119.0108,113.4825 L120.1328,114.3345 Z" id="Fill-13" fill="#FFFFFF"></path>
            <path d="M129.7998,103.4263 L126.3708,111.4883 L133.1248,111.4883 L129.7998,103.4263 Z M129.1548,101.9293 L130.5688,101.9293 L136.7598,116.6413 L135.2228,116.6413 L133.6228,112.7353 L125.8308,112.7353 L124.1688,116.6413 L122.7348,116.6413 L129.1548,101.9293 Z" id="Fill-15" fill="#FFFFFF"></path>
            <polygon id="Fill-17" fill="#FFFFFF" points="140.8799 101.9302 149.6899 101.9302 149.6899 103.1772 142.2519 103.1772 142.2519 108.4132 149.1699 108.4132 149.1699 109.6592 142.2519 109.6592 142.2519 116.6402 140.8799 116.6402"></polygon>
            <polygon id="Fill-19" fill="#FFFFFF" points="154.4326 101.9302 163.4296 101.9302 163.4296 103.1772 155.8046 103.1772 155.8046 108.4132 162.9526 108.4132 162.9526 109.6592 155.8046 109.6592 155.8046 115.3942 163.7616 115.3942 163.7616 116.6402 154.4326 116.6402"></polygon>
        </g>
    </g>
</svg>